<mxfile host="app.diagrams.net" modified="2022-02-04T03:46:50.978Z" agent="5.0 (Windows NT 10.0; Win64; x64) AppleWebKit/537.36 (KHTML, like Gecko) Chrome/97.0.4692.99 Safari/537.36" etag="4yBUCo_DJO9j5g7l9xRO" version="16.5.3" type="github">
  <diagram id="G9URGlftVFYS-OsgE3q_" name="Page-1">
    <mxGraphModel dx="2321" dy="681" grid="1" gridSize="10" guides="1" tooltips="1" connect="1" arrows="1" fold="1" page="1" pageScale="1" pageWidth="1100" pageHeight="850" math="0" shadow="0">
      <root>
        <mxCell id="0" />
        <mxCell id="1" parent="0" />
        <mxCell id="IYnw7WudZfnkX5wU1Qxr-7" style="edgeStyle=none;rounded=0;orthogonalLoop=1;jettySize=auto;html=1;" edge="1" parent="1" source="IYnw7WudZfnkX5wU1Qxr-1" target="IYnw7WudZfnkX5wU1Qxr-2">
          <mxGeometry relative="1" as="geometry" />
        </mxCell>
        <mxCell id="IYnw7WudZfnkX5wU1Qxr-8" style="edgeStyle=none;rounded=0;orthogonalLoop=1;jettySize=auto;html=1;" edge="1" parent="1" source="IYnw7WudZfnkX5wU1Qxr-1" target="IYnw7WudZfnkX5wU1Qxr-3">
          <mxGeometry relative="1" as="geometry" />
        </mxCell>
        <mxCell id="IYnw7WudZfnkX5wU1Qxr-9" style="edgeStyle=none;rounded=0;orthogonalLoop=1;jettySize=auto;html=1;" edge="1" parent="1" source="IYnw7WudZfnkX5wU1Qxr-1" target="IYnw7WudZfnkX5wU1Qxr-4">
          <mxGeometry relative="1" as="geometry" />
        </mxCell>
        <mxCell id="IYnw7WudZfnkX5wU1Qxr-1" value="Software Quality" style="ellipse;whiteSpace=wrap;html=1;aspect=fixed;" vertex="1" parent="1">
          <mxGeometry x="210" y="310" width="80" height="80" as="geometry" />
        </mxCell>
        <mxCell id="IYnw7WudZfnkX5wU1Qxr-6" style="rounded=0;orthogonalLoop=1;jettySize=auto;html=1;" edge="1" parent="1" source="IYnw7WudZfnkX5wU1Qxr-2" target="IYnw7WudZfnkX5wU1Qxr-5">
          <mxGeometry relative="1" as="geometry" />
        </mxCell>
        <mxCell id="IYnw7WudZfnkX5wU1Qxr-2" value="Products" style="ellipse;whiteSpace=wrap;html=1;aspect=fixed;" vertex="1" parent="1">
          <mxGeometry x="200" y="90" width="80" height="80" as="geometry" />
        </mxCell>
        <mxCell id="IYnw7WudZfnkX5wU1Qxr-10" value="implement" style="edgeStyle=none;rounded=0;orthogonalLoop=1;jettySize=auto;html=1;dashed=1;" edge="1" parent="1" source="IYnw7WudZfnkX5wU1Qxr-3" target="IYnw7WudZfnkX5wU1Qxr-4">
          <mxGeometry relative="1" as="geometry" />
        </mxCell>
        <mxCell id="IYnw7WudZfnkX5wU1Qxr-12" value="service" style="edgeStyle=none;rounded=0;orthogonalLoop=1;jettySize=auto;html=1;dashed=1;" edge="1" parent="1" source="IYnw7WudZfnkX5wU1Qxr-3" target="IYnw7WudZfnkX5wU1Qxr-2">
          <mxGeometry relative="1" as="geometry" />
        </mxCell>
        <mxCell id="IYnw7WudZfnkX5wU1Qxr-3" value="Design" style="ellipse;whiteSpace=wrap;html=1;aspect=fixed;" vertex="1" parent="1">
          <mxGeometry x="-50" y="425" width="80" height="80" as="geometry" />
        </mxCell>
        <mxCell id="IYnw7WudZfnkX5wU1Qxr-11" value="build" style="edgeStyle=none;rounded=0;orthogonalLoop=1;jettySize=auto;html=1;dashed=1;" edge="1" parent="1" source="IYnw7WudZfnkX5wU1Qxr-4" target="IYnw7WudZfnkX5wU1Qxr-2">
          <mxGeometry relative="1" as="geometry" />
        </mxCell>
        <mxCell id="IYnw7WudZfnkX5wU1Qxr-4" value="Code" style="ellipse;whiteSpace=wrap;html=1;aspect=fixed;" vertex="1" parent="1">
          <mxGeometry x="500" y="440" width="80" height="80" as="geometry" />
        </mxCell>
        <mxCell id="IYnw7WudZfnkX5wU1Qxr-5" value="OWASP" style="ellipse;whiteSpace=wrap;html=1;aspect=fixed;" vertex="1" parent="1">
          <mxGeometry x="660" y="50" width="80" height="80" as="geometry" />
        </mxCell>
      </root>
    </mxGraphModel>
  </diagram>
</mxfile>
